<svg width="89" height="86" viewBox="0 0 89 86" fill="none" xmlns="http://www.w3.org/2000/svg">
<mask id="path-1-inside-1_86_1695" fill="white">
<path fill-rule="evenodd" clip-rule="evenodd" d="M41.1186 0.701303L24.6635 28.0638C24.6005 28.1686 24.5781 28.2928 24.6005 28.4131L25.0675 30.9181C25.0896 31.0367 25.0681 31.1594 25.0068 31.2634L5.99957 63.5479C5.92244 63.679 5.7899 63.7678 5.63941 63.7893L3.30431 64.1228C3.15006 64.1449 3.0149 64.2376 2.93877 64.3735L0.618435 68.517C0.576636 68.5916 0.554688 68.6757 0.554688 68.7613V79.5816C0.554688 79.8578 0.778545 80.0816 1.05469 80.0816H16.9108C17.11 80.0816 17.2902 80.1999 17.3695 80.3826L19.4945 85.2809C19.5809 85.48 19.878 85.4183 19.878 85.2013V73.817C19.878 73.7028 19.9171 73.592 19.9888 73.5031L27.4283 64.2799C27.4924 64.2004 27.5302 64.1079 27.5378 64.0061C28.1604 55.6048 31.732 37.1565 41.1798 28.5595C41.3849 28.3729 41.6977 28.3928 41.8751 28.6059C46.7541 34.4649 55.8015 49.085 55.4884 63.9777C55.4859 64.094 55.5234 64.2079 55.5952 64.2995L62.6621 73.3095C62.7312 73.3975 62.7687 73.5062 62.7687 73.618V85.2568C62.7687 85.4711 63.0602 85.5353 63.1502 85.3408L65.4507 80.3716C65.5325 80.1948 65.7096 80.0816 65.9044 80.0816H87.9188C88.3058 80.0816 88.5461 79.6609 88.3495 79.3276L79.3111 64.0012C79.2212 63.8488 79.0574 63.7552 78.8804 63.7552H76.5861C76.4098 63.7552 76.2465 63.6624 76.1564 63.5109L56.9958 31.3098C56.9177 31.1786 56.9039 31.0189 56.9582 30.8762L57.8824 28.4493C57.9361 28.3084 57.9232 28.1507 57.8474 28.0202L41.9794 0.707809C41.7884 0.378937 41.3146 0.375356 41.1186 0.701303ZM41.7852 54.3457C44.5164 54.3457 46.7305 52.1316 46.7305 49.4004C46.7305 46.6692 44.5164 44.4551 41.7852 44.4551C39.0539 44.4551 36.8398 46.6692 36.8398 49.4004C36.8398 52.1316 39.0539 54.3457 41.7852 54.3457Z"/>
</mask>
<path fill-rule="evenodd" clip-rule="evenodd" d="M41.1186 0.701303L24.6635 28.0638C24.6005 28.1686 24.5781 28.2928 24.6005 28.4131L25.0675 30.9181C25.0896 31.0367 25.0681 31.1594 25.0068 31.2634L5.99957 63.5479C5.92244 63.679 5.7899 63.7678 5.63941 63.7893L3.30431 64.1228C3.15006 64.1449 3.0149 64.2376 2.93877 64.3735L0.618435 68.517C0.576636 68.5916 0.554688 68.6757 0.554688 68.7613V79.5816C0.554688 79.8578 0.778545 80.0816 1.05469 80.0816H16.9108C17.11 80.0816 17.2902 80.1999 17.3695 80.3826L19.4945 85.2809C19.5809 85.48 19.878 85.4183 19.878 85.2013V73.817C19.878 73.7028 19.9171 73.592 19.9888 73.5031L27.4283 64.2799C27.4924 64.2004 27.5302 64.1079 27.5378 64.0061C28.1604 55.6048 31.732 37.1565 41.1798 28.5595C41.3849 28.3729 41.6977 28.3928 41.8751 28.6059C46.7541 34.4649 55.8015 49.085 55.4884 63.9777C55.4859 64.094 55.5234 64.2079 55.5952 64.2995L62.6621 73.3095C62.7312 73.3975 62.7687 73.5062 62.7687 73.618V85.2568C62.7687 85.4711 63.0602 85.5353 63.1502 85.3408L65.4507 80.3716C65.5325 80.1948 65.7096 80.0816 65.9044 80.0816H87.9188C88.3058 80.0816 88.5461 79.6609 88.3495 79.3276L79.3111 64.0012C79.2212 63.8488 79.0574 63.7552 78.8804 63.7552H76.5861C76.4098 63.7552 76.2465 63.6624 76.1564 63.5109L56.9958 31.3098C56.9177 31.1786 56.9039 31.0189 56.9582 30.8762L57.8824 28.4493C57.9361 28.3084 57.9232 28.1507 57.8474 28.0202L41.9794 0.707809C41.7884 0.378937 41.3146 0.375356 41.1186 0.701303ZM41.7852 54.3457C44.5164 54.3457 46.7305 52.1316 46.7305 49.4004C46.7305 46.6692 44.5164 44.4551 41.7852 44.4551C39.0539 44.4551 36.8398 46.6692 36.8398 49.4004C36.8398 52.1316 39.0539 54.3457 41.7852 54.3457Z" fill="url(#paint0_linear_86_1695)"/>
<path d="M24.6635 28.0638L23.8066 27.5484L23.8065 27.5484L24.6635 28.0638ZM41.1186 0.701303L41.9756 1.21666L41.9756 1.21666L41.1186 0.701303ZM24.6005 28.4131L23.6174 28.5963L23.6174 28.5963L24.6005 28.4131ZM25.0675 30.9181L24.0844 31.1013L25.0675 30.9181ZM25.0068 31.2634L25.8686 31.7707L25.0068 31.2634ZM5.99957 63.5479L5.13782 63.0406H5.13782L5.99957 63.5479ZM5.63941 63.7893L5.78083 64.7792H5.78083L5.63941 63.7893ZM3.30431 64.1228L3.16289 63.1329L3.16285 63.1329L3.30431 64.1228ZM2.93877 64.3735L2.06626 63.8849L2.06626 63.8849L2.93877 64.3735ZM0.618435 68.517L1.49094 69.0056L1.49094 69.0056L0.618435 68.517ZM17.3695 80.3826L16.4521 80.7806H16.4521L17.3695 80.3826ZM19.4945 85.2809L20.4119 84.8829L19.4945 85.2809ZM19.9888 73.5031L20.7672 74.131L20.7672 74.131L19.9888 73.5031ZM27.4283 64.2799L28.2067 64.9077L28.2067 64.9077L27.4283 64.2799ZM27.5378 64.0061L26.5405 63.9322L26.5405 63.9322L27.5378 64.0061ZM41.1798 28.5595L40.5068 27.8199L40.5068 27.8199L41.1798 28.5595ZM41.8751 28.6059L41.1067 29.2458V29.2458L41.8751 28.6059ZM55.4884 63.9777L54.4886 63.9566V63.9566L55.4884 63.9777ZM55.5952 64.2995L56.3821 63.6823L56.3821 63.6823L55.5952 64.2995ZM62.6621 73.3095L61.8753 73.9266H61.8753L62.6621 73.3095ZM63.1502 85.3408L64.0577 85.7609L64.0577 85.7609L63.1502 85.3408ZM65.4507 80.3716L66.3581 80.7917V80.7917L65.4507 80.3716ZM88.3495 79.3276L89.2109 78.8197L88.3495 79.3276ZM79.3111 64.0012L80.1725 63.4933L80.1725 63.4933L79.3111 64.0012ZM76.1564 63.5109L77.0158 62.9996V62.9996L76.1564 63.5109ZM56.9958 31.3098L56.1364 31.8212L56.1364 31.8212L56.9958 31.3098ZM56.9582 30.8762L56.0237 30.5203V30.5203L56.9582 30.8762ZM57.8824 28.4493L56.9478 28.0935L56.9478 28.0935L57.8824 28.4493ZM57.8474 28.0202L58.7121 27.5179L58.7121 27.5179L57.8474 28.0202ZM41.9794 0.707809L41.1148 1.21016L41.1148 1.21016L41.9794 0.707809ZM25.5205 28.5791L41.9756 1.21666L40.2616 0.185942L23.8066 27.5484L25.5205 28.5791ZM25.5835 28.2298C25.606 28.35 25.5835 28.4743 25.5205 28.5791L23.8065 27.5484C23.6175 27.8628 23.5502 28.2356 23.6174 28.5963L25.5835 28.2298ZM26.0505 30.7348L25.5835 28.2298L23.6174 28.5963L24.0844 31.1013L26.0505 30.7348ZM25.8686 31.7707C26.0523 31.4587 26.1169 31.0908 26.0505 30.7348L24.0844 31.1013C24.0623 30.9827 24.0838 30.8601 24.1451 30.756L25.8686 31.7707ZM6.86131 64.0553L25.8686 31.7707L24.1451 30.756L5.13782 63.0406L6.86131 64.0553ZM5.78083 64.7792C6.23232 64.7147 6.62993 64.4483 6.86131 64.0553L5.13782 63.0406C5.21495 62.9096 5.34748 62.8208 5.49798 62.7993L5.78083 64.7792ZM3.44573 65.1128L5.78083 64.7792L5.49799 62.7993L3.16289 63.1329L3.44573 65.1128ZM3.81127 64.8621C3.73512 64.9981 3.59996 65.0907 3.44576 65.1128L3.16285 63.1329C2.70015 63.199 2.29467 63.477 2.06626 63.8849L3.81127 64.8621ZM1.49094 69.0056L3.81127 64.8621L2.06626 63.8849L-0.254071 68.0284L1.49094 69.0056ZM1.55469 68.7613C1.55469 68.8468 1.53274 68.9309 1.49094 69.0056L-0.254067 68.0283C-0.379466 68.2523 -0.445312 68.5046 -0.445312 68.7613H1.55469ZM1.55469 79.5816V68.7613H-0.445312V79.5816H1.55469ZM1.05469 79.0816C1.33083 79.0816 1.55469 79.3055 1.55469 79.5816H-0.445312C-0.445312 80.4101 0.226265 81.0816 1.05469 81.0816V79.0816ZM16.9108 79.0816H1.05469V81.0816H16.9108V79.0816ZM18.2869 79.9846C18.0491 79.4364 17.5084 79.0816 16.9108 79.0816V81.0816C16.7116 81.0816 16.5314 80.9634 16.4521 80.7806L18.2869 79.9846ZM20.4119 84.8829L18.2869 79.9846L16.4521 80.7806L18.5771 85.6789L20.4119 84.8829ZM18.878 85.2013C18.878 84.3333 20.0665 84.0867 20.4119 84.8829L18.5771 85.6789C19.0953 86.8733 20.878 86.5034 20.878 85.2013H18.878ZM18.878 73.817V85.2013H20.878V73.817H18.878ZM19.2105 72.8753C18.9953 73.142 18.878 73.4744 18.878 73.817H20.878C20.878 73.9313 20.8389 74.0421 20.7672 74.131L19.2105 72.8753ZM26.65 63.6521L19.2105 72.8753L20.7672 74.131L28.2067 64.9077L26.65 63.6521ZM26.5405 63.9322C26.5486 63.8232 26.5918 63.7241 26.6499 63.6521L28.2067 64.9077C28.393 64.6767 28.5119 64.3927 28.5351 64.08L26.5405 63.9322ZM40.5068 27.8199C35.5897 32.2942 32.2677 39.2549 30.0967 46.0519C27.9186 52.8716 26.8569 59.6622 26.5405 63.9322L28.5351 64.08C28.8412 59.9486 29.8767 53.3144 32.0019 46.6604C34.1344 39.9837 37.3221 33.4218 41.8528 29.2991L40.5068 27.8199ZM42.6436 27.966C42.0976 27.3104 41.1284 27.2543 40.5068 27.8199L41.8528 29.2991C41.6414 29.4915 41.2977 29.4753 41.1067 29.2458L42.6436 27.966ZM56.4881 63.9987C56.6489 56.3526 54.4091 48.8217 51.5396 42.4913C48.6687 36.1578 45.1385 30.9621 42.6436 27.966L41.1067 29.2458C43.4907 32.1087 46.9237 37.1525 49.718 43.317C52.5137 49.4846 54.641 56.7101 54.4886 63.9566L56.4881 63.9987ZM56.3821 63.6823C56.4546 63.7748 56.4905 63.8871 56.4881 63.9987L54.4886 63.9566C54.4813 64.3009 54.5922 64.6409 54.8084 64.9166L56.3821 63.6823ZM63.449 72.6923L56.3821 63.6823L54.8084 64.9166L61.8753 73.9266L63.449 72.6923ZM63.7687 73.618C63.7687 73.2824 63.6561 72.9564 63.449 72.6923L61.8753 73.9266C61.8062 73.8386 61.7687 73.7299 61.7687 73.618H63.7687ZM63.7687 85.2568V73.618H61.7687V85.2568H63.7687ZM62.2427 84.9207C62.6029 84.1428 63.7687 84.3994 63.7687 85.2568H61.7687C61.7687 86.5428 63.5174 86.9278 64.0577 85.7609L62.2427 84.9207ZM64.5432 79.9515L62.2427 84.9207L64.0577 85.7609L66.3581 80.7917L64.5432 79.9515ZM65.9044 79.0816C65.3199 79.0816 64.7887 79.4211 64.5432 79.9515L66.3581 80.7917C66.2763 80.9685 66.0992 81.0816 65.9044 81.0816V79.0816ZM87.9188 79.0816H65.9044V81.0816H87.9188V79.0816ZM87.4882 79.8356C87.2916 79.5023 87.5319 79.0816 87.9188 79.0816V81.0816C89.0797 81.0816 89.8006 79.8196 89.2109 78.8197L87.4882 79.8356ZM78.4498 64.5092L87.4882 79.8356L89.2109 78.8197L80.1725 63.4933L78.4498 64.5092ZM78.8804 64.7552C78.7035 64.7552 78.5397 64.6617 78.4498 64.5092L80.1725 63.4933C79.9028 63.0359 79.4114 62.7552 78.8804 62.7552V64.7552ZM76.5861 64.7552H78.8804V62.7552H76.5861V64.7552ZM75.297 64.0223C75.5674 64.4768 76.0572 64.7552 76.5861 64.7552V62.7552C76.7623 62.7552 76.9256 62.8481 77.0158 62.9996L75.297 64.0223ZM56.1364 31.8212L75.297 64.0223L77.0158 62.9996L57.8552 30.7985L56.1364 31.8212ZM56.0237 30.5203C55.8607 30.9484 55.9022 31.4275 56.1364 31.8212L57.8552 30.7985C57.9333 30.9297 57.9471 31.0894 57.8928 31.2321L56.0237 30.5203ZM56.9478 28.0935L56.0237 30.5203L57.8928 31.2321L58.8169 28.8052L56.9478 28.0935ZM56.9828 28.5226C56.907 28.3921 56.8942 28.2345 56.9478 28.0935L58.8169 28.8052C58.978 28.3822 58.9394 27.9092 58.7121 27.5179L56.9828 28.5226ZM41.1148 1.21016L56.9828 28.5226L58.7121 27.5179L42.8441 0.205455L41.1148 1.21016ZM41.9756 1.21666C41.7796 1.54262 41.3058 1.53903 41.1148 1.21016L42.8441 0.205459C42.2709 -0.781157 40.8497 -0.791904 40.2616 0.185945L41.9756 1.21666ZM45.7305 49.4004C45.7305 51.5793 43.9641 53.3457 41.7852 53.3457V55.3457C45.0687 55.3457 47.7305 52.6839 47.7305 49.4004H45.7305ZM41.7852 45.4551C43.9641 45.4551 45.7305 47.2215 45.7305 49.4004H47.7305C47.7305 46.1169 45.0687 43.4551 41.7852 43.4551V45.4551ZM37.8398 49.4004C37.8398 47.2215 39.6062 45.4551 41.7852 45.4551V43.4551C38.5017 43.4551 35.8398 46.1169 35.8398 49.4004H37.8398ZM41.7852 53.3457C39.6062 53.3457 37.8398 51.5793 37.8398 49.4004H35.8398C35.8398 52.6839 38.5017 55.3457 41.7852 55.3457V53.3457Z" fill="#B557FA" mask="url(#path-1-inside-1_86_1695)"/>
<defs>
<linearGradient id="paint0_linear_86_1695" x1="44.4871" y1="-12.3361" x2="99.187" y2="126.97" gradientUnits="userSpaceOnUse">
<stop stop-color="white"/>
<stop offset="1" stop-color="#7217B5"/>
</linearGradient>
</defs>
</svg>
